<?xml version="1.0" encoding="UTF-8"?>
<svg id="Layer_2" data-name="Layer 2" xmlns="http://www.w3.org/2000/svg" viewBox="0 0 962.44 201.38">
  <defs>
    <style>
      .cls-1 {
        fill: #251106;
      }

      .cls-2 {
        fill: #fff;
      }

      .cls-3 {
        fill: #ff5b00;
      }
    </style>
  </defs>
  <g id="Layer_1-2" data-name="Layer 1">
    <g>
      <g>
        <g>
          <polygon class="cls-1" points="271.08 106.35 316.98 106.35 316.98 93.77 271.08 93.77 271.08 76.48 321.38 76.48 321.38 63.48 253.78 63.48 253.78 137.9 322.22 137.9 322.22 124.9 271.08 124.9 271.08 106.35"/>
          <path class="cls-1" d="M390.97,127.99v-24.05c0-6.85-2.59-12.03-7.76-15.56-5.17-3.53-12.54-5.29-22.11-5.29-6.43,0-11.81.79-16.14,2.36-4.33,1.57-7.72,3.65-10.17,6.24-2.45,2.59-4.09,5.49-4.93,8.7l16.66,1.47c.77-2.65,2.36-4.59,4.77-5.82,2.41-1.22,5.57-1.83,9.48-1.83,4.33,0,7.65.72,9.96,2.15,2.31,1.43,3.46,3.72,3.46,6.86v.82l-23.79,2.43c-4.96.49-9.01,1.47-12.16,2.93-3.14,1.47-5.49,3.34-7.02,5.61-1.54,2.27-2.31,4.84-2.31,7.7,0,3.49,1.03,6.45,3.09,8.86,2.06,2.41,4.93,4.24,8.59,5.5,3.67,1.26,7.91,1.89,12.73,1.89s9.55-.61,13.57-1.83c3.28-1,6.02-2.5,8.23-4.48l.52,5.26h15.93c-.21-2.03-.37-3.79-.47-5.29-.1-1.5-.16-3.04-.16-4.61ZM371.69,124.32c-1.68,1.5-3.86,2.57-6.55,3.2-2.69.63-5.61.94-8.75.94-3.63,0-6.29-.54-7.97-1.62-1.68-1.08-2.51-2.57-2.51-4.45s.68-3.2,2.04-4.14c1.36-.94,3.44-1.59,6.24-1.94l20.02-2.55v4.64c0,2.45-.84,4.42-2.51,5.92Z"/>
          <path class="cls-1" d="M453.64,108.5c-3-1.08-6.64-1.87-10.9-2.36l-19.07-2.51c-3.29-.42-5.5-1-6.66-1.73-1.15-.73-1.73-1.69-1.73-2.88,0-1.54,1.27-2.74,3.83-3.62,2.55-.87,6.27-1.31,11.16-1.31,5.45,0,9.61.58,12.47,1.73,2.86,1.15,4.96,2.71,6.29,4.66l13.1-4.51c-1.82-3.07-4.23-5.56-7.23-7.44-3-1.89-6.57-3.27-10.69-4.14-4.12-.87-8.77-1.31-13.94-1.31-5.8,0-10.97.59-15.51,1.78-4.54,1.19-8.12,3.06-10.74,5.61-2.62,2.55-3.93,5.89-3.93,10.01,0,3.08.82,5.63,2.46,7.65,1.64,2.03,3.98,3.63,7.02,4.82,3.04,1.19,6.62,2.03,10.74,2.51l20.23,2.62c2.44.28,4.28.77,5.5,1.47,1.22.7,1.83,1.78,1.83,3.25,0,2.03-1.52,3.44-4.56,4.24-3.04.8-7.04,1.21-12,1.21-4.26,0-7.69-.37-10.27-1.1-2.59-.73-4.61-1.66-6.08-2.78-1.47-1.12-2.62-2.24-3.46-3.35l-13.52,5.55c1.75,2.87,4.19,5.24,7.34,7.13s6.88,3.27,11.21,4.14c4.33.87,9.05,1.31,14.15,1.31,6.29,0,11.86-.61,16.72-1.83,4.86-1.22,8.68-3.16,11.48-5.82,2.79-2.65,4.19-6.08,4.19-10.27,0-3.42-.82-6.13-2.46-8.12-1.64-1.99-3.97-3.53-6.97-4.61Z"/>
          <path class="cls-1" d="M515.79,84.34l-17.94,37.87-18.21-37.87h-17.29l27.3,52.54-1,1.75c-1.26,2.31-2.99,3.86-5.19,4.66-2.2.8-4.68,1.19-7.44,1.15-2.76-.04-5.57-.23-8.44-.58v11.63c2.1.35,4.1.59,6.03.73,1.92.14,3.58.21,4.98.21,3.91,0,7.42-.51,10.53-1.52,3.11-1.01,5.96-2.81,8.54-5.4,2.58-2.59,5.06-6.22,7.44-10.9l27.77-54.29h-17.08Z"/>
        </g>
        <g>
          <path class="cls-3" d="M616.59,99.34c1.82-.59,3.57-1.43,5.24-2.53,2.24-1.47,4.05-3.41,5.45-5.82,1.4-2.41,2.1-5.26,2.1-8.54,0-3.91-.94-7.28-2.83-10.11-1.89-2.83-4.73-5.01-8.54-6.55-3.81-1.54-8.61-2.31-14.41-2.31h-45.38v74.41h46.74c5.8,0,10.6-.84,14.41-2.52,3.81-1.68,6.67-4.07,8.59-7.18,1.92-3.11,2.88-6.8,2.88-11.06,0-4.75-1.47-8.8-4.4-12.16-2.48-2.84-5.77-4.71-9.85-5.65ZM602.34,70.82c5.8,0,10.13.96,13,2.88,2.86,1.92,4.3,4.73,4.3,8.44v1.47c0,3.56-1.29,6.53-3.88,8.91-2.59,2.38-6.57,3.56-11.95,3.56h-35.63v-25.26h34.17ZM621.1,117.88c0,3.91-1.4,7.01-4.19,9.28-2.8,2.27-7.02,3.41-12.68,3.41h-36.05v-27.67h36.26c5.66,0,9.85,1.26,12.58,3.77,2.73,2.52,4.09,5.73,4.09,9.64v1.57Z"/>
          <path class="cls-3" d="M675.18,83.82c-4.26,0-8.14.56-11.63,1.68-3.49,1.12-6.36,2.88-8.59,5.29-.38.41-.71.88-1.05,1.33v-7.04h-9.54v52.82h9.54v-29.45c0-3.56.56-6.46,1.68-8.7,1.12-2.24,2.64-3.96,4.56-5.19s4.11-2.05,6.55-2.46c2.45-.42,5.05-.58,7.81-.47,2.76.1,5.54.33,8.33.68v-7.65c-1.75-.35-3.22-.58-4.4-.68-1.19-.11-2.27-.16-3.25-.16Z"/>
          <path class="cls-3" d="M742.36,127.68v-23.21c0-6.99-2.38-12.17-7.13-15.56-4.75-3.39-11.35-5.08-19.81-5.08-5.31,0-9.94.65-13.89,1.94-3.95,1.29-7.15,3.11-9.59,5.45-2.45,2.34-4.12,5.12-5.03,8.33l9.12,1.36c.98-3.35,3.15-5.89,6.5-7.6s7.55-2.57,12.58-2.57c5.52,0,9.85.98,13,2.93,3.14,1.96,4.72,5.14,4.72,9.54v1.4l-26.31,2.9c-4.47.49-8.25,1.41-11.32,2.78-3.08,1.36-5.42,3.13-7.02,5.29-1.61,2.17-2.41,4.72-2.41,7.65,0,3.42,1.03,6.29,3.09,8.59,2.06,2.3,4.87,4.05,8.44,5.24,3.56,1.19,7.65,1.78,12.26,1.78,5.52,0,10.39-.68,14.62-2.04,3.7-1.19,6.67-2.98,9.01-5.3l.58,6.4h9.01c-.14-2.58-.24-4.65-.31-6.18-.07-1.54-.11-2.88-.11-4.03ZM721.71,130.45c-3.42.98-7.37,1.47-11.84,1.47-4.89,0-8.54-.77-10.95-2.3-2.41-1.54-3.62-3.7-3.62-6.5,0-2.45.94-4.37,2.83-5.76,1.89-1.4,5.06-2.37,9.54-2.93l25.15-3.21v6.46c0,3.29-1,5.99-2.99,8.12-1.99,2.13-4.7,3.69-8.12,4.66Z"/>
          <path class="cls-3" d="M807.18,89.63c-2.27-1.85-5-3.28-8.17-4.3-3.18-1.01-6.73-1.52-10.64-1.52-4.54,0-8.61.58-12.21,1.73-3.6,1.15-6.54,2.95-8.8,5.4-.13.14-.24.31-.37.46v-6.33h-9.54v52.82h9.54v-30.71c0-4.12.77-7.37,2.31-9.75,1.54-2.37,3.76-4.07,6.65-5.08s6.34-1.52,10.32-1.52c5.59,0,10.06,1.21,13.41,3.62,3.35,2.41,5.03,6.69,5.03,12.84v30.6h9.54v-32.8c0-3.21-.61-6.13-1.83-8.75-1.22-2.62-2.97-4.86-5.24-6.71Z"/>
          <path class="cls-3" d="M881.01,93.12c-.64-.77-1.32-1.5-2.1-2.17-2.66-2.31-5.82-4.07-9.48-5.29s-7.6-1.83-11.79-1.83-7.86.56-11.63,1.68c-3.77,1.12-7.14,2.81-10.11,5.08-2.97,2.27-5.34,5.14-7.13,8.59-1.78,3.46-2.67,7.53-2.67,12.21s.89,8.77,2.67,12.26c1.78,3.49,4.16,6.39,7.13,8.7,2.97,2.3,6.34,4.02,10.11,5.14,3.77,1.12,7.65,1.68,11.63,1.68,4.19,0,8.09-.61,11.69-1.83,3.6-1.22,6.72-2.99,9.38-5.29.85-.74,1.6-1.56,2.31-2.41v8.28h9.54V63.48h-9.54v29.63ZM877.6,124.01c-2.27,2.9-5.15,5-8.65,6.29-3.49,1.29-7.09,1.94-10.79,1.94-3.98,0-7.69-.72-11.11-2.15-3.42-1.43-6.2-3.62-8.33-6.55-2.13-2.93-3.2-6.6-3.2-11v-2.1c0-4.47,1.06-8.16,3.2-11.06,2.13-2.9,4.91-5.06,8.33-6.5,3.42-1.43,7.13-2.15,11.11-2.15,3.7,0,7.3.65,10.79,1.94,3.49,1.29,6.37,3.37,8.65,6.24,2.27,2.87,3.41,6.71,3.41,11.53v2.1c0,4.75-1.14,8.58-3.41,11.48Z"/>
          <path class="cls-3" d="M960.19,115.42c-1.5-1.92-3.72-3.46-6.65-4.61-2.93-1.15-6.53-2.01-10.79-2.57l-17.71-2.41c-4.33-.56-7.46-1.38-9.38-2.46-1.92-1.08-2.88-2.71-2.88-4.87,0-2.52,1.62-4.42,4.87-5.71,3.25-1.29,7.74-1.94,13.47-1.94s10.95.75,15.04,2.25c4.09,1.5,7,3.51,8.75,6.03l6.71-4.19c-2.03-2.73-4.56-4.89-7.6-6.5-3.04-1.61-6.5-2.78-10.38-3.51-3.88-.73-8.12-1.1-12.73-1.1-5.03,0-9.59.54-13.68,1.62-4.09,1.08-7.35,2.78-9.8,5.08-2.45,2.3-3.67,5.24-3.67,8.8,0,2.52.68,4.72,2.04,6.6,1.36,1.89,3.51,3.46,6.45,4.72,2.93,1.26,6.74,2.2,11.42,2.83l18.03,2.41c3.63.49,6.51,1.28,8.65,2.36,2.13,1.09,3.2,2.92,3.2,5.5,0,3-1.83,5.15-5.5,6.44-3.67,1.29-8.4,1.94-14.2,1.94-4.19,0-7.91-.38-11.16-1.15-3.25-.77-6.06-1.8-8.44-3.09-2.38-1.29-4.33-2.78-5.87-4.45l-6.71,4.61c2.3,2.59,5.01,4.7,8.12,6.34s6.59,2.85,10.43,3.62c3.84.77,8.07,1.15,12.68,1.15,5.8,0,10.92-.54,15.35-1.62,4.44-1.08,7.91-2.83,10.43-5.24,2.52-2.41,3.77-5.57,3.77-9.48,0-3-.75-5.47-2.25-7.39Z"/>
        </g>
      </g>
      <g>
        <path class="cls-3" d="M160.82,130.08H40.56c-1.52,0-2.74,1.23-2.74,2.74v28.53c0,1.52,1.23,2.74,2.74,2.74h103.8c10.61,0,19.21-8.6,19.21-19.21v-12.06c0-1.52-1.23-2.74-2.74-2.74Z"/>
        <path class="cls-3" d="M113.33,71.3c10.38,0,18.79-8.41,18.79-18.79v-12.54c0-1.48-1.2-2.68-2.68-2.68H40.5c-1.48,0-2.68,1.2-2.68,2.68v28.65c0,1.48,1.2,2.68,2.68,2.68h72.84Z"/>
        <path class="cls-3" d="M37.81,115c0,1.6,1.3,2.9,2.9,2.9h86.84c11.21,0,20.3-9.09,20.3-20.3v-10.81c0-1.6-1.3-2.9-2.9-2.9H40.71c-1.6,0-2.9,1.3-2.9,2.9v28.22Z"/>
        <path class="cls-2" d="M171.33,0H30.05C13.45,0,0,13.45,0,30.05v141.28c0,16.6,13.45,30.05,30.05,30.05h141.28c16.6,0,30.05-13.45,30.05-30.05V30.05c0-16.6-13.45-30.05-30.05-30.05ZM163.57,144.88c0,10.61-8.6,19.21-19.21,19.21H40.56c-1.52,0-2.74-1.23-2.74-2.74v-28.53c0-1.52,1.23-2.74,2.74-2.74h120.27c1.52,0,2.74,1.23,2.74,2.74v12.06ZM40.71,83.88h104.24c1.6,0,2.9,1.3,2.9,2.9v10.81c0,11.21-9.09,20.3-20.3,20.3H40.71c-1.6,0-2.9-1.3-2.9-2.9v-28.22c0-1.6,1.3-2.9,2.9-2.9ZM37.81,68.62v-28.65c0-1.48,1.2-2.68,2.68-2.68h88.95c1.48,0,2.68,1.2,2.68,2.68v12.54c0,10.38-8.41,18.79-18.79,18.79H40.5c-1.48,0-2.68-1.2-2.68-2.68Z"/>
      </g>
    </g>
  </g>
</svg>